<?xml version="1.0" standalone="no"?><svg xmlns="http://www.w3.org/2000/svg" viewBox="0 0 1440 320"><path fill="#A1DD70" fill-opacity="1" d="M0,96L30,112C60,128,120,160,180,160C240,160,300,128,360,138.7C420,149,480,203,540,202.7C600,203,660,149,720,117.3C780,85,840,75,900,101.3C960,128,1020,192,1080,192C1140,192,1200,128,1260,96C1320,64,1380,64,1410,64L1440,64L1440,320L1410,320C1380,320,1320,320,1260,320C1200,320,1140,320,1080,320C1020,320,960,320,900,320C840,320,780,320,720,320C660,320,600,320,540,320C480,320,420,320,360,320C300,320,240,320,180,320C120,320,60,320,30,320L0,320Z"></path></svg>